<svg width="489" height="186" viewBox="0 0 489 186" fill="none" xmlns="http://www.w3.org/2000/svg">
<path d="M57.55 180.161H56.9844L57.0538 180.722C57.2566 182.362 58.0205 183.573 59.212 184.36C60.3845 185.135 61.9269 185.47 63.657 185.47C66.7123 185.47 69.148 183.485 69.148 180.661C69.148 179.786 68.9797 179.058 68.6635 178.454C68.3464 177.848 67.8948 177.394 67.3691 177.046C66.3405 176.366 64.9973 176.079 63.7688 175.838C63.679 175.82 63.5899 175.803 63.5014 175.786C62.3296 175.557 61.2788 175.352 60.4884 174.928C60.0776 174.707 59.7628 174.439 59.5479 174.097C59.3341 173.758 59.197 173.31 59.197 172.694C59.197 171.111 60.8219 169.66 63.068 169.66C64.5536 169.66 65.6207 170.081 66.3248 170.704C67.0281 171.327 67.4116 172.189 67.4669 173.156L67.4938 173.628H67.966H68.586H69.1193L69.085 173.096C68.984 171.53 68.3464 170.249 67.2721 169.366C66.2051 168.489 64.7507 168.04 63.068 168.04C60.092 168.04 57.577 170.01 57.577 172.694C57.577 173.541 57.7472 174.246 58.0673 174.831C58.3878 175.417 58.8429 175.854 59.369 176.188C60.3972 176.839 61.7414 177.119 62.9698 177.365C63.0114 177.374 63.0528 177.382 63.0941 177.39C64.3228 177.636 65.4308 177.858 66.2538 178.321C66.6657 178.554 66.9843 178.836 67.2027 179.196C67.4205 179.555 67.559 180.023 67.559 180.661C67.559 182.354 65.9443 183.85 63.657 183.85C62.0829 183.85 60.9314 183.556 60.1347 183.02C59.3547 182.496 58.8601 181.703 58.6626 180.575L58.5901 180.161H58.17H57.55ZM112.048 170.125H115.485V177.251C115.485 180.057 115.846 182.122 116.795 183.488C117.779 184.904 119.318 185.47 121.379 185.47H121.879V184.97V184.35V183.85H121.379C119.68 183.85 118.687 183.426 118.07 182.509C117.414 181.533 117.105 179.895 117.105 177.251V170.125H121.379H121.879V169.625V169.005V168.505H121.379H117.105V165.533V164.412L116.271 165.161L111.714 169.253L110.743 170.125H112.048ZM178.4 168.505H177.9V169.005V176.941C177.9 181.147 175.575 183.85 172.51 183.85C170.915 183.85 169.594 183.171 168.659 181.986C167.717 180.792 167.151 179.057 167.151 176.941V169.005V168.505H166.651H166.031H165.531V169.005V176.941C165.531 179.401 166.214 181.527 167.439 183.048C168.671 184.577 170.432 185.47 172.51 185.47C174.818 185.47 176.74 184.324 177.991 182.476L178.055 184.52L178.07 185.005H178.555H179.02H179.52V184.505V169.005V168.505H179.02H178.4ZM237.288 185.005H237.788V184.505V163.651V163.151H237.288H236.668H236.168V163.651V171.052C234.865 169.166 232.872 168.04 230.561 168.04C226.271 168.04 223.148 171.851 223.148 176.786C223.148 181.661 226.273 185.47 230.561 185.47C232.915 185.47 234.94 184.301 236.241 182.35L236.324 184.524L236.342 185.005H236.823H237.288ZM284.132 185.005H284.632V184.505V169.005V168.505H284.132H283.512H283.012V169.005V184.505V185.005H283.512H284.132ZM230.561 183.85C227.324 183.85 224.768 180.909 224.768 176.786C224.768 172.564 227.266 169.66 230.561 169.66C233.753 169.66 236.168 172.489 236.168 176.786C236.168 178.911 235.566 180.685 234.574 181.916C233.587 183.141 232.201 183.85 230.561 183.85ZM283.822 161.84C283.5 161.84 283.202 161.954 282.986 162.178C282.771 162.4 282.671 162.693 282.671 162.991C282.671 163.296 282.767 163.596 282.992 163.821C283.216 164.046 283.517 164.142 283.822 164.142C284.127 164.142 284.427 164.046 284.652 163.821C284.877 163.596 284.973 163.296 284.973 162.991C284.973 162.693 284.872 162.4 284.658 162.178C284.441 161.954 284.143 161.84 283.822 161.84ZM336.14 168.04C331.731 168.04 328.603 171.845 328.603 176.786C328.603 181.669 331.765 185.47 336.14 185.47C340.634 185.47 343.739 181.799 343.739 176.786C343.739 171.746 340.637 168.04 336.14 168.04ZM336.14 183.85C332.831 183.85 330.223 180.929 330.223 176.786C330.223 172.606 332.805 169.66 336.14 169.66C337.899 169.66 339.38 170.378 340.428 171.611C341.481 172.85 342.119 174.635 342.119 176.786C342.119 178.922 341.489 180.691 340.441 181.917C339.398 183.137 337.918 183.85 336.14 183.85Z" fill="white" stroke="white"/>
<path d="M0 22.5H4.4L63.2 157.5L122 22.5H126.4L65.4 162.5H61L0 22.5Z" fill="white"/>
<path d="M112.5 162.5L173.5 22.5H177.9L238.9 162.5H234.5L214.3 116.3H137.1L116.9 162.5H112.5ZM138.7 112.3H212.7L175.7 27.5L138.7 112.3Z" fill="white"/>
<path d="M258.961 30.7V162.5H254.961V22.5L258 22.5L353.561 154.3V22.5H357.561V162.5H354.561L258.961 30.7Z" fill="white"/>
<path d="M488.433 129.5C488.433 150.1 467.633 165.5 439.033 165.5C409.833 165.5 388.433 149.5 385.633 125.3H389.633C392.833 147.3 412.033 161.5 439.033 161.5C465.033 161.5 484.433 147.7 484.433 129.5C484.433 72.5 388.033 110.3 388.033 55.1C388.033 34.7 409.233 19.5 437.633 19.5C463.633 19.5 484.033 34.5 487.833 56.3H483.833C480.033 37.1 461.433 23.5 437.633 23.5C411.633 23.5 392.033 37.1 392.033 55.1C392.033 105.7 488.433 68.1 488.433 129.5Z" fill="white"/>
<path d="M258.9 26.4L258.961 75.6H254.961L254.9 26.4H229.5L258.9 0V22.4H289.7V26.4H258.9Z" fill="white"/>
<path d="M353.565 158.5V109.3H357.565V158.5H382.965L353.565 184.9V162.5H322.765V158.5H353.565Z" fill="white"/>
</svg>
